<svg width="72" height="72" viewBox="0 0 24 24" fill="none" xmlns="http://www.w3.org/2000/svg"><rect width="24" height="24" fill="none" rx="0" ry="0"></rect><path fill-rule="evenodd" clip-rule="evenodd" d="M11.5198 20.3626L5.577 14.4198C5.457 14.2998 5.397 14.1498 5.397 13.9998C5.397 13.8498 5.457 13.6898 5.577 13.5798C5.807 13.3498 6.187 13.3498 6.427 13.5798L11.3969 18.5497V3.99985C11.3969 3.66985 11.6669 3.39985 11.9969 3.39985C12.3269 3.39985 12.5969 3.66985 12.5969 3.99985V18.5499L17.577 13.5698C17.807 13.3398 18.187 13.3398 18.427 13.5698C18.667 13.7998 18.657 14.1798 18.427 14.4198L12.427 20.4198C12.3989 20.4479 12.3686 20.4725 12.3366 20.4937C12.2399 20.5606 12.1228 20.5999 11.9969 20.5999C11.8029 20.5999 11.6297 20.5065 11.5198 20.3626Z" fill="#0a0497"></path></svg>