<svg width="72" height="72" viewBox="0 0 24 24" fill="none" xmlns="http://www.w3.org/2000/svg"><rect width="24" height="24" fill="none" rx="0" ry="0"></rect><path fill-rule="evenodd" clip-rule="evenodd" d="M19.1488 6.76799C19.5188 6.76799 19.8888 6.93797 20.1388 7.22795C20.3988 7.53795 20.5188 7.94798 20.4588 8.35796L18.4688 21.938H14.0188C14.0988 21.758 14.1388 21.548 14.1388 21.338C14.1388 21.128 14.0988 20.918 14.0188 20.738H17.4288L17.8988 17.528H14.0088V16.928C14.0088 16.728 13.9988 16.528 13.9688 16.328H18.0788L18.5888 12.798H11.8588L11.8888 13.018C11.8106 12.9554 11.7202 12.899 11.6318 12.8439C11.6072 12.8285 11.5828 12.8132 11.5588 12.798C11.3488 12.6579 11.1288 12.5379 10.8988 12.438V12.428C10.7888 12.378 10.6888 12.338 10.5788 12.298L9.99878 8.34795C9.93878 7.94798 10.0488 7.53795 10.3188 7.22795C10.5688 6.93797 10.9288 6.76799 11.3088 6.76799H14.5543L15.209 3.15654C15.2715 2.78203 15.4873 2.43974 15.8018 2.22734C16.1025 2.02373 16.4609 1.95244 16.8164 2.03154L19.6699 2.66289C19.9932 2.73467 20.1973 3.05498 20.126 3.37822C20.0537 3.70293 19.7354 3.90654 19.4102 3.83476L16.5566 3.20342C16.4316 3.2498 16.4014 3.30058 16.3916 3.36113L15.7745 6.76799H19.1488ZM11.1788 8.17796L11.6788 11.5979H18.7688L19.2688 8.17796C19.2888 8.088 19.2488 8.028 19.2288 8.00798L11.3088 7.96794C11.2088 8.028 11.1688 8.088 11.1788 8.17796ZM8.39258 12.8265C11.0811 12.8265 13.2686 14.6673 13.2686 16.9295V17.5296H3.51562V16.9295C3.51562 14.6673 5.70312 12.8265 8.39258 12.8265ZM8.39258 14.0267C6.625 14.0267 5.14551 15.0159 4.79395 16.3294H11.9902C11.6387 15.0159 10.1592 14.0267 8.39258 14.0267ZM3.9873 20.7347C3.65625 20.7347 3.3877 21.0032 3.3877 21.3348C3.3877 21.6663 3.65625 21.9349 3.9873 21.9349H12.7979C13.1289 21.9349 13.3975 21.6663 13.3975 21.3348C13.3975 21.0032 13.1289 20.7347 12.7979 20.7347H3.9873ZM3 19.1121C3 18.7806 3.26855 18.512 3.59961 18.512H13.1855C13.5166 18.512 13.7852 18.7806 13.7852 19.1121C13.7852 19.4436 13.5166 19.7122 13.1855 19.7122H3.59961C3.26855 19.7122 3 19.4436 3 19.1121Zv" fill="#ffa600"></path></svg>