<svg width="72" height="72" viewBox="0 0 24 24" fill="none" xmlns="http://www.w3.org/2000/svg"><rect width="24" height="24" fill="none" rx="0" ry="0"></rect><path fill-rule="evenodd" clip-rule="evenodd" d="M19.0063 2.75497C19.4106 2.66512 19.8091 2.92684 19.896 3.33212C19.9819 3.73739 19.7241 4.13583 19.3188 4.22177L4.99363 7.26766C4.9409 7.27938 4.88816 7.28427 4.8364 7.28427C4.48972 7.28427 4.17918 7.04305 4.10398 6.69052C4.01804 6.28524 4.27586 5.8868 4.68113 5.80087L8.91013 4.9017L9.12644 3.92294C9.19187 3.6163 9.47117 2.59091 10.2651 2.42294L12.5317 1.94052C13.3305 1.76669 13.9966 2.59481 14.1841 2.85067L14.7346 3.66323L19.0063 2.75497ZM10.5141 3.59677C10.4848 3.63778 10.352 3.93759 10.2983 4.18075L10.1997 4.62747L13.4682 3.93252L13.2026 3.54013C13.0678 3.35946 12.8247 3.13973 12.7251 3.11727L10.5141 3.59677ZM5.15179 8.60376H19.1625C19.5766 8.60376 19.9125 8.9397 19.9125 9.35376C19.9125 9.76782 19.5766 10.1038 19.1625 10.1038H18.9022L17.7973 20.8284C17.6586 21.5764 17.0473 22.0833 16.3364 22.0833H7.95062C7.23969 22.0833 6.62933 21.5764 6.4975 20.8772L5.38348 10.1038H5.15179C4.73773 10.1038 4.40179 9.76782 4.40179 9.35376C4.40179 8.9397 4.73773 8.60376 5.15179 8.60376ZM16.3364 20.884C16.4711 20.884 16.5864 20.7883 16.6108 20.6565L17.6982 10.1038H6.58698L7.68402 20.7053C7.7016 20.7883 7.81683 20.884 7.95062 20.884H16.3364ZM10.2105 19.6606C10.195 19.6615 10.1802 19.6624 10.1645 19.6624C9.77191 19.6624 9.44281 19.3577 9.41742 18.9602L8.99457 12.3381C8.9682 11.925 9.28168 11.5686 9.69476 11.5422C10.1078 11.5041 10.4643 11.8284 10.4907 12.2424L10.9135 18.8645C10.9399 19.2776 10.6264 19.634 10.2133 19.6604L10.2105 19.6606ZM14.101 19.6604C14.1176 19.6624 14.1332 19.6624 14.1498 19.6624C14.5424 19.6624 14.8715 19.3577 14.8969 18.9602L15.3198 12.3381C15.3461 11.925 15.0327 11.5686 14.6196 11.5422C14.2006 11.4934 13.85 11.8284 13.8237 12.2424L13.4008 18.8645C13.3745 19.2776 13.6879 19.634 14.101 19.6604Z" fill="#353535"></path></svg>